<?xml version="1.0" standalone="no"?>
<!DOCTYPE svg PUBLIC "-//W3C//DTD SVG 20010904//EN"
 "http://www.w3.org/TR/2001/REC-SVG-20010904/DTD/svg10.dtd">
<svg version="1.0" xmlns="http://www.w3.org/2000/svg"
 width="1181.000000pt" height="1181.000000pt" viewBox="0 0 1181.000000 1181.000000"
 preserveAspectRatio="xMidYMid meet">
<metadata>
Created by potrace 1.11, written by Peter Selinger 2001-2013
</metadata>
<g transform="translate(0.000000,1181.000000) scale(0.100000,-0.100000)"
fill="#000000" stroke="none">
<path d="M5447 11435 c-1168 -102 -2213 -535 -3122 -1291 -166 -138 -519 -491
-659 -659 -310 -372 -538 -723 -747 -1150 -320 -655 -497 -1318 -550 -2064
-15 -210 -6 -735 16 -931 109 -989 437 -1858 996 -2647 186 -261 330 -433 559
-667 413 -421 844 -745 1360 -1021 133 -71 179 -94 330 -162 577 -262 1214
-423 1869 -473 173 -13 640 -13 807 0 630 49 1284 208 1792 436 29 13 54 24
56 24 2 0 66 29 142 66 356 169 724 398 1034 643 197 156 281 231 495 446 214
213 287 294 446 495 254 320 508 734 669 1090 34 74 65 144 70 155 33 71 106
262 149 390 158 470 245 904 282 1403 15 211 7 766 -15 957 -130 1148 -549
2133 -1280 3010 -155 185 -498 526 -697 690 -315 262 -685 503 -1059 691 -601
302 -1212 480 -1920 560 -202 22 -808 28 -1023 9z m518 -1665 c784 -56 1506
-304 1980 -680 48 -38 112 -77 177 -106 479 -211 839 -508 995 -819 17 -33 43
-98 59 -145 27 -80 28 -95 28 -255 0 -156 -2 -178 -27 -260 -15 -49 -58 -151
-95 -226 l-68 -136 24 -34 c38 -55 121 -225 169 -347 118 -303 225 -783 283
-1277 11 -99 27 -232 35 -295 64 -508 95 -932 95 -1311 0 -421 -33 -629 -120
-761 -40 -60 -73 -75 -215 -98 -66 -10 -205 -39 -310 -64 -684 -162 -1631
-345 -2358 -455 -1211 -185 -2222 -230 -2807 -125 -47 8 -118 19 -159 24 -86
11 -152 31 -236 72 -98 49 -118 69 -161 161 l-39 85 -60 7 c-173 19 -349 71
-395 116 -64 64 -146 317 -215 664 -102 508 -138 908 -138 1525 0 569 31 994
114 1572 l32 217 -40 63 c-87 138 -245 469 -231 483 3 3 31 -1 64 -10 138 -36
276 -4 437 103 35 23 48 26 140 26 95 1 107 3 169 34 78 38 135 98 176 182
l27 58 80 -5 c70 -5 86 -3 123 16 51 26 95 90 112 161 14 57 35 74 103 83 135
18 201 107 200 267 -1 75 -1 76 33 99 56 39 155 151 180 205 40 85 32 162 -25
252 -13 19 -10 25 27 64 123 126 145 312 59 485 -16 33 -38 73 -49 88 -11 16
-18 30 -16 33 15 15 281 99 434 137 259 65 585 116 834 130 134 8 447 6 575
-3z"/>
<path d="M5423 9615 c-268 -25 -509 -69 -768 -141 -141 -38 -309 -95 -321
-107 -3 -3 11 -31 31 -63 110 -181 99 -393 -28 -526 l-39 -41 28 -56 c64 -131
8 -282 -151 -402 l-54 -41 0 -79 c0 -63 -5 -90 -24 -133 -34 -74 -110 -126
-184 -126 -46 0 -80 -26 -86 -67 -11 -64 -66 -145 -117 -170 -47 -25 -120 -30
-164 -13 -25 9 -28 6 -57 -52 -43 -85 -107 -150 -182 -184 -57 -27 -71 -29
-180 -29 l-118 0 -19 -42 c-22 -51 -86 -95 -163 -114 -62 -16 -222 -16 -291 0
-27 7 -51 10 -53 7 -9 -9 66 -168 119 -252 29 -47 83 -123 120 -170 l68 -84
-15 -88 c-162 -954 -175 -2163 -34 -2947 11 -60 33 -186 50 -280 46 -268 122
-520 178 -594 14 -18 41 -28 122 -47 57 -13 107 -24 110 -24 4 0 -4 37 -17 83
-33 119 -119 566 -148 782 -53 382 -70 702 -63 1233 6 445 12 562 48 917 22
219 26 254 65 520 l26 180 -66 99 c-117 175 -236 438 -236 519 l0 25 48 -22
c123 -59 239 -59 379 0 85 35 92 37 218 38 111 1 137 4 178 23 69 32 149 113
186 188 31 63 32 63 64 54 46 -13 113 -11 150 5 63 27 117 109 131 201 l7 40
57 2 c39 1 73 11 111 30 48 24 60 37 86 88 27 52 30 68 29 140 -1 80 0 83 27
99 50 29 148 138 176 193 41 85 42 140 4 218 l-33 66 51 54 c69 76 95 146 94
255 0 97 -21 165 -79 261 -20 33 -34 62 -32 64 2 2 71 26 153 54 602 200 1309
261 1970 170 288 -39 830 -160 1029 -229 116 -40 70 -4 -137 106 -374 199
-836 336 -1347 400 -175 21 -719 27 -907 9z"/>
<path d="M6225 9244 c-453 -35 -865 -118 -1182 -236 l-53 -19 25 -49 c37 -73
62 -147 75 -217 20 -112 -17 -235 -96 -323 l-35 -39 26 -73 c21 -56 26 -84 21
-121 -8 -75 -60 -160 -145 -238 -41 -38 -78 -69 -83 -69 -4 0 -8 -35 -8 -77 0
-99 -13 -144 -53 -190 -39 -44 -95 -70 -170 -79 -57 -7 -57 -7 -67 -48 -19
-74 -30 -99 -56 -133 -47 -62 -122 -86 -220 -69 l-40 7 -25 -53 c-31 -67 -123
-161 -185 -190 -43 -20 -65 -23 -179 -23 -71 0 -136 -4 -142 -8 -35 -22 -133
-47 -185 -47 -32 0 -74 -7 -93 -14 -57 -24 -140 -36 -176 -26 -18 5 -35 7 -38
5 -8 -9 59 -166 115 -267 30 -54 79 -135 110 -180 69 -100 69 -102 31 -353
-77 -514 -111 -971 -110 -1515 0 -461 21 -784 74 -1149 32 -220 95 -519 134
-631 47 -135 147 -345 172 -358 52 -28 337 -66 619 -83 180 -10 599 -7 779 6
33 2 130 9 215 15 946 66 2375 302 3670 605 107 25 251 55 320 66 142 24 150
27 183 72 145 193 155 935 27 1982 -10 88 -29 241 -40 340 -58 490 -159 947
-277 1258 -53 143 -131 302 -179 370 -19 26 -34 49 -34 51 0 2 21 40 46 83 59
99 109 214 137 317 32 117 31 328 -1 439 -71 247 -259 482 -547 682 -433 301
-959 482 -1629 561 -124 14 -619 27 -731 18z m2095 -933 c0 -5 -14 -14 -31
-21 -33 -14 -69 -62 -69 -93 0 -26 26 -32 56 -12 16 11 30 13 36 7 10 -10 -21
-34 -58 -46 -52 -16 -77 60 -39 118 27 40 105 75 105 47z m-2050 -23 c40 -43
17 -127 -57 -209 -38 -42 -80 -69 -108 -69 -23 0 -69 52 -54 61 7 4 19 -2 29
-13 22 -28 59 -18 105 27 67 68 98 163 61 191 -23 16 -69 1 -96 -33 -23 -30
-47 -22 -26 9 40 56 110 74 146 36z m-252 -50 c25 -25 7 -98 -23 -98 -19 0
-19 14 0 30 16 13 21 50 7 50 -4 0 -13 -5 -20 -12 -9 -9 -15 -9 -23 -1 -8 8
-4 15 12 27 28 19 32 19 47 4z m1225 -565 c8 -10 18 -35 22 -55 6 -31 4 -38
-9 -38 -11 0 -16 9 -16 28 0 34 -9 47 -38 56 -18 6 -31 0 -62 -32 -54 -54 -55
-96 -5 -147 20 -19 40 -35 45 -35 6 0 10 -7 10 -15 0 -20 -4 -19 -49 9 -74 47
-89 131 -34 197 42 50 106 65 136 32z m67 -123 c4 0 11 -7 14 -16 5 -13 2 -15
-13 -11 -21 5 -31 -10 -31 -44 0 -10 -4 -19 -10 -19 -11 0 -14 59 -4 85 4 9
13 14 21 11 8 -3 18 -6 23 -6z m408 -557 c49 -28 99 -97 138 -193 22 -52 28
-86 32 -173 4 -94 2 -115 -18 -170 -12 -34 -27 -67 -32 -74 -7 -8 -1 -16 19
-26 90 -48 152 -180 193 -415 23 -129 20 -152 -20 -152 -30 0 -38 21 -64 167
-15 78 -35 161 -45 185 -27 62 -76 125 -111 143 l-30 15 5 -27 c3 -16 17 -91
31 -168 37 -200 40 -233 20 -241 -9 -3 -26 -4 -39 0 -19 4 -24 16 -35 78 -7
40 -22 132 -35 204 -12 72 -28 138 -36 147 -7 10 -11 27 -8 39 7 24 -66 383
-113 562 -21 80 -26 113 -18 123 16 20 115 5 166 -24z m576 15 c17 -28 -3 -49
-59 -64 -76 -19 -95 -47 -95 -145 0 -62 6 -93 25 -141 36 -87 62 -117 170
-191 107 -73 162 -136 196 -226 18 -47 20 -73 17 -163 -3 -101 -5 -108 -33
-143 -17 -20 -53 -49 -80 -65 -44 -25 -54 -28 -75 -17 -41 21 -31 47 32 84 67
39 82 72 80 175 -2 122 -58 210 -187 293 -100 65 -155 125 -191 213 -26 60
-29 79 -29 182 0 130 8 151 78 190 74 42 131 49 151 18z m-4582 -113 c-1 -5
-12 -10 -25 -10 -30 0 -34 -42 -8 -94 27 -52 41 -60 41 -22 0 33 14 41 24 15
10 -26 7 -51 -8 -63 -43 -36 -126 112 -96 169 9 16 19 20 43 18 18 -2 31 -7
29 -13z m3602 -22 c7 -16 24 -91 36 -168 12 -77 53 -297 91 -490 86 -433 87
-475 19 -510 -41 -21 -64 -19 -100 11 -63 53 -113 195 -214 599 -99 398 -129
544 -116 560 16 19 44 19 60 0 6 -8 31 -101 55 -207 94 -422 186 -756 232
-845 21 -41 47 -54 56 -29 4 9 -25 170 -63 358 -38 189 -78 408 -90 487 -12
79 -28 165 -36 190 -15 51 -6 71 32 71 16 0 28 -9 38 -27z m-524 -88 c17 -21
-4 -51 -41 -59 -17 -3 -49 -6 -71 -6 -26 0 -41 -5 -45 -16 -5 -14 65 -394 77
-413 3 -6 39 -5 85 0 75 8 81 8 97 -12 29 -34 8 -56 -59 -64 -112 -12 -113
-13 -106 -48 14 -80 95 -472 97 -475 2 -1 34 3 73 10 74 12 100 8 110 -18 10
-27 -24 -47 -114 -66 -94 -19 -127 -15 -137 19 -20 69 -94 429 -120 588 -8 50
-34 180 -57 290 -53 255 -53 256 -11 267 96 25 203 26 222 3z m-516 -87 c21
-33 44 -152 62 -328 9 -85 36 -290 62 -455 25 -165 47 -315 50 -332 3 -28 0
-34 -23 -45 -38 -17 -49 2 -69 110 -22 123 -81 548 -101 731 -10 85 -25 188
-35 230 -20 82 -14 111 20 111 11 0 26 -10 34 -22z m-390 -54 c9 -4 16 -18 16
-35 0 -25 -5 -29 -42 -39 -103 -25 -120 -50 -115 -166 3 -68 9 -93 39 -156 38
-79 69 -110 194 -186 117 -73 196 -241 179 -386 -11 -103 -43 -150 -131 -195
-44 -23 -69 -20 -85 10 -13 26 -7 33 46 59 60 29 81 59 90 125 17 141 -53 272
-187 350 -145 82 -227 223 -228 388 0 124 32 180 126 217 53 21 73 23 98 14z
m-467 -128 c-9 -13 -30 -24 -58 -28 -31 -5 -52 -17 -72 -39 -28 -30 -29 -35
-25 -118 3 -78 7 -95 43 -166 39 -77 43 -82 140 -148 55 -37 113 -82 128 -100
76 -87 116 -223 98 -335 -14 -86 -28 -111 -90 -154 -61 -43 -104 -49 -121 -18
-14 25 -7 36 33 56 57 29 85 64 97 119 13 61 1 155 -25 206 -26 50 -103 126
-159 158 -94 54 -136 99 -180 191 -40 83 -41 87 -41 195 0 156 26 194 156 229
52 14 55 13 72 -6 15 -18 16 -24 4 -42z m-436 -6 c22 -12 25 -43 7 -57 -7 -6
-44 -13 -81 -16 -37 -2 -71 -8 -75 -11 -5 -6 73 -424 81 -432 1 -1 22 2 47 6
100 20 150 9 150 -32 0 -24 -25 -34 -99 -41 -35 -3 -68 -10 -73 -15 -7 -7 -4
-44 6 -109 19 -108 80 -391 87 -398 3 -2 34 3 69 11 72 17 110 8 110 -25 0
-28 -19 -38 -104 -56 -98 -20 -127 -17 -143 15 -14 31 -85 361 -113 529 -17
98 -87 444 -117 578 -4 17 1 25 18 32 74 28 194 39 230 21z m-448 -77 c10 -12
24 -80 41 -213 37 -273 59 -398 117 -669 27 -130 52 -243 55 -252 5 -16 -40
-44 -56 -34 -23 14 -100 347 -145 634 -15 91 -29 173 -32 181 -3 8 -16 -41
-28 -110 -28 -157 -32 -170 -55 -170 -25 0 -61 45 -142 182 -38 62 -68 109
-68 103 0 -9 37 -185 126 -605 49 -231 49 -231 33 -241 -26 -16 -59 -10 -69
14 -5 12 -23 96 -40 187 -44 230 -135 661 -171 808 -32 130 -30 152 12 152 23
0 43 -29 176 -259 90 -155 113 -189 117 -170 3 13 21 123 41 244 39 235 49
260 88 218z m4025 -1275 c16 -16 15 -43 -2 -58 -8 -6 -49 -17 -91 -25 -42 -7
-78 -15 -80 -17 -5 -5 13 -100 60 -323 53 -251 115 -575 115 -601 0 -28 -19
-39 -55 -30 -18 5 -25 13 -25 30 0 13 -27 158 -61 322 -33 165 -71 355 -84
424 -37 190 -26 170 -86 155 -60 -16 -77 -12 -85 22 -9 33 5 44 63 54 165 27
287 50 291 54 9 9 28 5 40 -7z m-546 -30 c12 -9 20 -42 28 -113 16 -143 82
-541 135 -814 44 -222 45 -234 28 -247 -26 -19 -29 -18 -57 19 -21 27 -223
432 -383 767 -28 58 -29 39 -3 -137 34 -232 107 -591 136 -666 8 -22 -53 -34
-73 -14 -22 22 -84 328 -153 761 -63 393 -63 406 -19 406 9 0 26 -12 37 -27
28 -40 164 -315 226 -457 64 -147 169 -351 162 -316 -3 14 -18 93 -35 175 -16
83 -35 195 -41 250 -7 55 -20 157 -31 226 -22 147 -23 171 -7 187 15 15 30 15
50 0z m-4132 -23 c0 -8 -8 -15 -19 -15 -49 0 -101 -76 -101 -147 0 -51 12 -66
49 -65 21 0 31 -4 31 -14 0 -15 -56 -20 -76 -6 -61 40 -33 186 46 240 38 25
70 29 70 7z m3534 -71 c19 -7 21 -47 4 -61 -7 -6 -44 -13 -81 -16 -37 -2 -70
-7 -72 -9 -4 -4 74 -419 80 -426 1 -2 39 1 83 5 88 10 112 2 112 -35 0 -29
-22 -38 -104 -45 -38 -4 -71 -8 -73 -11 -5 -5 27 -180 69 -372 l30 -141 76 15
c75 15 75 15 94 -8 30 -37 4 -55 -108 -76 -93 -17 -95 -17 -114 2 -21 22 -70
230 -124 534 -49 270 -104 540 -116 569 -15 32 6 52 68 67 53 13 152 17 176 8z
m-3470 -40 c10 -25 7 -74 -4 -74 -5 0 -10 10 -10 23 0 33 -14 49 -40 45 -13
-1 -25 3 -27 10 -7 19 73 16 81 -4z m2935 -38 c14 -16 44 -158 61 -286 6 -47
43 -242 81 -434 78 -385 79 -407 27 -451 -60 -51 -126 -21 -176 80 -43 89
-118 355 -207 740 -30 132 -60 258 -65 280 -8 34 -6 43 10 59 17 18 21 18 42
4 19 -13 28 -40 56 -169 43 -201 133 -562 178 -714 35 -120 78 -215 101 -222
32 -11 24 49 -61 460 -25 120 -55 282 -67 360 -11 78 -27 173 -36 210 -12 53
-12 71 -3 82 16 19 44 19 59 1z m-656 -114 c50 -52 144 -285 181 -452 31 -135
66 -368 66 -437 l0 -72 51 -58 c64 -72 76 -97 59 -118 -21 -25 -46 -17 -90 31
-37 41 -43 44 -58 31 -54 -47 -148 -20 -206 60 -42 57 -86 166 -114 283 -43
170 -74 367 -79 490 -7 160 3 200 59 240 53 39 95 39 131 2z m-539 -103 c63
-50 169 -335 206 -554 46 -276 48 -418 7 -517 -32 -77 -125 -97 -194 -42 -121
97 -210 461 -200 819 5 178 22 255 63 293 32 28 83 29 118 1z m-577 -25 c52
-30 82 -68 127 -164 62 -132 67 -317 12 -416 l-24 -42 36 -24 c86 -55 146
-185 181 -385 26 -150 26 -160 1 -168 -44 -14 -56 7 -79 147 -13 73 -30 153
-39 177 -26 71 -86 157 -119 168 l-29 10 23 -131 c12 -72 29 -162 37 -201 16
-78 9 -105 -28 -105 -30 0 -42 16 -49 65 -20 144 -62 353 -73 366 -9 10 -12
27 -8 45 5 29 -60 353 -112 553 -14 52 -22 106 -19 119 5 22 9 23 63 17 31 -4
76 -18 99 -31z m4170 -6 c45 -42 55 -127 19 -157 -18 -15 -34 5 -17 22 6 6 11
26 11 43 0 58 -77 123 -94 79 -6 -18 -26 -20 -26 -3 0 6 8 20 17 30 20 23 57
17 90 -14z m-4564 -130 c22 -12 23 -66 1 -75 -10 -3 -29 -2 -44 4 -22 8 -34 7
-58 -9 -42 -26 -57 -110 -49 -267 7 -139 34 -272 89 -441 58 -178 99 -257 145
-276 49 -21 78 -11 111 36 21 31 33 39 52 37 20 -2 26 -8 28 -34 6 -56 -80
-133 -148 -133 -35 0 -117 38 -141 66 -30 34 -68 121 -119 269 -62 184 -90
324 -97 490 -9 206 18 287 107 333 45 22 80 23 123 0z m2525 -983 c-1 -49 14
-75 44 -75 17 0 19 5 13 30 -8 34 8 41 25 11 14 -27 13 -37 -6 -55 -22 -23
-51 -20 -79 9 -25 24 -33 73 -19 109 12 31 24 15 22 -29z m1755 -11 c3 -4 -1
-17 -9 -29 -32 -49 -21 -105 22 -105 16 0 19 36 4 45 -13 8 -13 35 0 35 5 0
17 -11 26 -25 20 -30 12 -71 -16 -80 -20 -6 -59 9 -72 29 -27 39 15 159 45
130z m-4642 -517 c-19 -19 -12 -54 14 -71 27 -18 33 -36 12 -36 -18 0 -67 52
-67 71 0 22 30 60 42 53 6 -4 6 -10 -1 -17z"/>
<path d="M7670 6823 c16 -65 41 -179 56 -253 15 -74 30 -139 34 -143 11 -13
42 61 49 117 11 86 -5 183 -44 263 -31 63 -91 133 -114 133 -5 0 4 -53 19
-117z"/>
<path d="M6145 4778 c-32 -18 -35 -28 -35 -130 0 -157 69 -519 130 -683 24
-63 99 -150 122 -143 29 10 17 41 -36 99 -56 60 -66 85 -44 107 19 19 40 14
75 -20 41 -40 41 -42 8 158 -32 191 -83 380 -136 500 -52 118 -58 126 -84 112z"/>
<path d="M5611 4662 c-33 -61 -41 -316 -16 -509 29 -223 86 -394 153 -457 30
-28 32 -28 56 -13 32 21 41 66 39 187 -2 187 -53 448 -118 621 -61 158 -94
208 -114 171z"/>
<path d="M5040 4653 c0 -13 92 -427 105 -473 l12 -45 21 45 c11 25 23 65 27
90 7 48 -8 166 -27 215 -22 57 -88 152 -113 163 -14 6 -25 8 -25 5z"/>
</g>
</svg>
